{
    "asset" : {
        "generator" : "Khronos glTF Blender I/O v1.6.16",
        "version" : "2.0"
    },
    "scene" : 0,
    "scenes" : [
        {
            "name" : "Scene",
            "nodes" : [
                1,
                10,
                11,
                12
            ]
        }
    ],
    "nodes" : [
        {
            "camera" : 0,
            "name" : "Camera_Orientation",
            "rotation" : [
                -0.7071067690849304,
                0,
                0,
                0.7071067690849304
            ]
        },
        {
            "children" : [
                0
            ],
            "name" : "Camera",
            "rotation" : [
                0.7071068286895752,
                0,
                0,
                0.7071068286895752
            ],
            "translation" : [
                0,
                2.0559074878692627,
                10
            ]
        },
        {
            "name" : "coin",
            "scale" : [
                0.07864614576101303,
                0.07864614576101303,
                0.07864614576101303
            ],
            "translation" : [
                0,
                0.3259811997413635,
                -0.39935213327407837
            ]
        },
        {
            "mesh" : 0,
            "name" : "floor-next",
            "translation" : [
                1.9967604875564575,
                0,
                0
            ]
        },
        {
            "mesh" : 0,
            "name" : "floor-next.001",
            "translation" : [
                3.993520975112915,
                0,
                0
            ]
        },
        {
            "mesh" : 0,
            "name" : "floor-prev",
            "translation" : [
                -1.9967604875564575,
                0,
                0
            ]
        },
        {
            "mesh" : 0,
            "name" : "floor-prev.001",
            "translation" : [
                -3.993520975112915,
                0,
                0
            ]
        },
        {
            "name" : "label.001",
            "scale" : [
                0.4175604283809662,
                0.1406066119670868,
                0.1406066119670868
            ],
            "translation" : [
                -0.5712013840675354,
                0.3448221683502197,
                -0.5990282297134399
            ]
        },
        {
            "name" : "label.002",
            "scale" : [
                0.4175604283809662,
                0.1406066119670868,
                0.1406066119670868
            ],
            "translation" : [
                0.5712013840675354,
                0.3448221683502197,
                -0.5990282297134399
            ]
        },
        {
            "name" : "question",
            "scale" : [
                0.9826159477233887,
                0.12855097651481628,
                0.19679883122444153
            ],
            "translation" : [
                0,
                0.7480232119560242,
                -0.5990285873413086
            ]
        },
        {
            "children" : [
                2,
                3,
                4,
                5,
                6,
                7,
                8,
                9
            ],
            "mesh" : 1,
            "name" : "Plane",
            "scale" : [
                5.008111953735352,
                5.008111953735352,
                5.008111953735352
            ],
            "translation" : [
                0,
                0,
                -3
            ]
        },
        {
            "mesh" : 2,
            "name" : "cursor",
            "translation" : [
                0,
                2.4000000953674316,
                -6
            ]
        },
        {
            "name" : "player",
            "scale" : [
                0.5,
                0.5,
                0.5
            ],
            "translation" : [
                -7,
                0.5,
                -5
            ]
        }
    ],
    "cameras" : [
        {
            "name" : "Camera",
            "perspective" : {
                "aspectRatio" : 1.7777777777777777,
                "yfov" : 0.39959648408210363,
                "zfar" : 100,
                "znear" : 0.10000000149011612
            },
            "type" : "perspective"
        }
    ],
    "materials" : [
        {
            "doubleSided" : true,
            "name" : "Material",
            "pbrMetallicRoughness" : {
                "baseColorTexture" : {
                    "index" : 0
                },
                "metallicFactor" : 0,
                "roughnessFactor" : 0.5
            }
        },
        {
            "doubleSided" : true,
            "name" : "Material.001",
            "pbrMetallicRoughness" : {
                "baseColorTexture" : {
                    "index" : 1
                },
                "metallicFactor" : 0,
                "roughnessFactor" : 0.5
            }
        }
    ],
    "meshes" : [
        {
            "name" : "Plane.001",
            "primitives" : [
                {
                    "attributes" : {
                        "POSITION" : 0,
                        "NORMAL" : 1,
                        "TEXCOORD_0" : 2
                    },
                    "indices" : 3,
                    "material" : 0
                }
            ]
        },
        {
            "name" : "Plane",
            "primitives" : [
                {
                    "attributes" : {
                        "POSITION" : 4,
                        "NORMAL" : 5,
                        "TEXCOORD_0" : 6
                    },
                    "indices" : 7,
                    "material" : 0
                }
            ]
        },
        {
            "name" : "Plane.002",
            "primitives" : [
                {
                    "attributes" : {
                        "POSITION" : 8,
                        "NORMAL" : 9,
                        "TEXCOORD_0" : 10
                    },
                    "indices" : 11,
                    "material" : 1
                }
            ]
        }
    ],
    "textures" : [
        {
            "sampler" : 0,
            "source" : 0
        },
        {
            "sampler" : 1,
            "source" : 1
        }
    ],
    "images" : [
        {
            "bufferView" : 4,
            "mimeType" : "image/png",
            "name" : "colored_packed"
        },
        {
            "bufferView" : 13,
            "mimeType" : "image/png",
            "name" : "colored_transparent_packed"
        }
    ],
    "accessors" : [
        {
            "bufferView" : 0,
            "componentType" : 5126,
            "count" : 484,
            "max" : [
                1,
                0,
                1
            ],
            "min" : [
                -1,
                0,
                -1
            ],
            "type" : "VEC3"
        },
        {
            "bufferView" : 1,
            "componentType" : 5126,
            "count" : 484,
            "type" : "VEC3"
        },
        {
            "bufferView" : 2,
            "componentType" : 5126,
            "count" : 484,
            "type" : "VEC2"
        },
        {
            "bufferView" : 3,
            "componentType" : 5123,
            "count" : 726,
            "type" : "SCALAR"
        },
        {
            "bufferView" : 5,
            "componentType" : 5126,
            "count" : 484,
            "max" : [
                1,
                0,
                1
            ],
            "min" : [
                -1,
                0,
                -1
            ],
            "type" : "VEC3"
        },
        {
            "bufferView" : 6,
            "componentType" : 5126,
            "count" : 484,
            "type" : "VEC3"
        },
        {
            "bufferView" : 7,
            "componentType" : 5126,
            "count" : 484,
            "type" : "VEC2"
        },
        {
            "bufferView" : 8,
            "componentType" : 5123,
            "count" : 726,
            "type" : "SCALAR"
        },
        {
            "bufferView" : 9,
            "componentType" : 5126,
            "count" : 4,
            "max" : [
                0.013630539178848267,
                0.43163055181503296,
                0
            ],
            "min" : [
                -0.41363054513931274,
                0.004369489848613739,
                0
            ],
            "type" : "VEC3"
        },
        {
            "bufferView" : 10,
            "componentType" : 5126,
            "count" : 4,
            "type" : "VEC3"
        },
        {
            "bufferView" : 11,
            "componentType" : 5126,
            "count" : 4,
            "type" : "VEC2"
        },
        {
            "bufferView" : 12,
            "componentType" : 5123,
            "count" : 6,
            "type" : "SCALAR"
        }
    ],
    "bufferViews" : [
        {
            "buffer" : 0,
            "byteLength" : 5808,
            "byteOffset" : 0
        },
        {
            "buffer" : 0,
            "byteLength" : 5808,
            "byteOffset" : 5808
        },
        {
            "buffer" : 0,
            "byteLength" : 3872,
            "byteOffset" : 11616
        },
        {
            "buffer" : 0,
            "byteLength" : 1452,
            "byteOffset" : 15488
        },
        {
            "buffer" : 0,
            "byteLength" : 23076,
            "byteOffset" : 16940
        },
        {
            "buffer" : 0,
            "byteLength" : 5808,
            "byteOffset" : 40016
        },
        {
            "buffer" : 0,
            "byteLength" : 5808,
            "byteOffset" : 45824
        },
        {
            "buffer" : 0,
            "byteLength" : 3872,
            "byteOffset" : 51632
        },
        {
            "buffer" : 0,
            "byteLength" : 1452,
            "byteOffset" : 55504
        },
        {
            "buffer" : 0,
            "byteLength" : 48,
            "byteOffset" : 56956
        },
        {
            "buffer" : 0,
            "byteLength" : 48,
            "byteOffset" : 57004
        },
        {
            "buffer" : 0,
            "byteLength" : 32,
            "byteOffset" : 57052
        },
        {
            "buffer" : 0,
            "byteLength" : 12,
            "byteOffset" : 57084
        },
        {
            "buffer" : 0,
            "byteLength" : 22927,
            "byteOffset" : 57096
        }
    ],
    "samplers" : [
        {
            "magFilter" : 9729,
            "minFilter" : 9987
        },
        {
            "magFilter" : 9728,
            "minFilter" : 9984
        }
    ],
    "buffers" : [
        {
            "byteLength" : 80024,
            "uri" : "data:application/octet-stream;base64,"
        }
    ]
}
